<svg width="287" height="36" viewBox="0 0 287 36" fill="none" xmlns="http://www.w3.org/2000/svg">
<path d="M15.216 1.224L8.856 18H6.936L0.576 1.224H2.4L7.896 16.176L13.44 1.224H15.216ZM19.4203 16.632H25.4443V18H17.7403V1.224H19.4203V16.632ZM37.5619 14.016H29.9299L28.4659 18H26.6899L32.8099 1.44H34.7059L40.8019 18H39.0259L37.5619 14.016ZM37.0579 12.624L33.7459 3.552L30.4339 12.624H37.0579ZM48.4661 1.224C50.3221 1.224 51.9141 1.56 53.2421 2.232C54.5701 2.904 55.5861 3.872 56.2901 5.136C56.9941 6.4 57.3461 7.904 57.3461 9.648C57.3461 11.376 56.9941 12.872 56.2901 14.136C55.5861 15.384 54.5701 16.344 53.2421 17.016C51.9141 17.672 50.3221 18 48.4661 18H43.4981V1.224H48.4661ZM48.4661 16.608C50.8021 16.608 52.5781 16 53.7941 14.784C55.0261 13.552 55.6421 11.84 55.6421 9.648C55.6421 7.44 55.0261 5.72 53.7941 4.488C52.5781 3.24 50.8021 2.616 48.4661 2.616H45.1781V16.608H48.4661ZM71.5314 1.224L66.1554 11.472V18H64.4754V11.472L59.0514 1.224H60.9474L65.3154 9.936L69.6594 1.224H71.5314ZM79.0783 18.168C77.9743 18.168 76.9983 17.976 76.1503 17.592C75.3183 17.208 74.6623 16.672 74.1823 15.984C73.7023 15.296 73.4463 14.528 73.4143 13.68H75.1903C75.2703 14.496 75.6303 15.216 76.2703 15.84C76.9103 16.448 77.8463 16.752 79.0783 16.752C80.2143 16.752 81.1103 16.464 81.7663 15.888C82.4383 15.296 82.7743 14.552 82.7743 13.656C82.7743 12.936 82.5903 12.36 82.2223 11.928C81.8543 11.48 81.3983 11.152 80.8543 10.944C80.3103 10.72 79.5583 10.48 78.5983 10.224C77.4783 9.92 76.5903 9.624 75.9343 9.336C75.2783 9.048 74.7183 8.6 74.2543 7.992C73.7903 7.384 73.5583 6.56 73.5583 5.52C73.5583 4.656 73.7823 3.888 74.2303 3.216C74.6783 2.528 75.3103 1.992 76.1263 1.608C76.9423 1.224 77.8783 1.032 78.9343 1.032C80.4863 1.032 81.7343 1.416 82.6783 2.184C83.6383 2.936 84.1903 3.912 84.3343 5.112H82.5103C82.3983 4.424 82.0223 3.816 81.3823 3.288C80.7423 2.744 79.8783 2.472 78.7903 2.472C77.7823 2.472 76.9423 2.744 76.2703 3.288C75.5983 3.816 75.2623 4.544 75.2623 5.472C75.2623 6.176 75.4463 6.744 75.8143 7.176C76.1823 7.608 76.6383 7.936 77.1823 8.16C77.7423 8.384 78.4943 8.624 79.4383 8.88C80.5263 9.184 81.4063 9.488 82.0783 9.792C82.7503 10.08 83.3183 10.528 83.7823 11.136C84.2463 11.744 84.4783 12.56 84.4783 13.584C84.4783 14.368 84.2703 15.112 83.8543 15.816C83.4383 16.52 82.8223 17.088 82.0063 17.52C81.1903 17.952 80.2143 18.168 79.0783 18.168ZM89.4047 16.632H95.4287V18H87.7247V1.224H89.4047V16.632ZM107.546 14.016H99.9143L98.4503 18H96.6743L102.794 1.44H104.69L110.786 18H109.01L107.546 14.016ZM107.042 12.624L103.73 3.552L100.418 12.624H107.042ZM126.779 1.224L120.419 18H118.499L112.139 1.224H113.963L119.459 16.176L125.003 1.224H126.779Z" fill="white"/>
<path d="M139.651 18.175C138.017 18.175 136.517 17.7917 135.151 17.025C133.784 16.2583 132.701 15.2 131.901 13.85C131.101 12.4833 130.701 10.9417 130.701 9.225C130.701 7.525 131.101 6 131.901 4.65C132.701 3.28333 133.784 2.21667 135.151 1.45C136.517 0.683333 138.017 0.3 139.651 0.3C141.301 0.3 142.801 0.683333 144.151 1.45C145.517 2.21667 146.592 3.28333 147.376 4.65C148.176 6 148.576 7.525 148.576 9.225C148.576 10.9417 148.176 12.4833 147.376 13.85C146.592 15.2 145.517 16.2583 144.151 17.025C142.784 17.7917 141.284 18.175 139.651 18.175ZM139.651 15.05C140.701 15.05 141.626 14.8167 142.426 14.35C143.226 13.8667 143.851 13.1833 144.301 12.3C144.751 11.4167 144.976 10.3917 144.976 9.225C144.976 8.05833 144.751 7.04167 144.301 6.175C143.851 5.29167 143.226 4.61667 142.426 4.15C141.626 3.68333 140.701 3.45 139.651 3.45C138.601 3.45 137.667 3.68333 136.851 4.15C136.051 4.61667 135.426 5.29167 134.976 6.175C134.526 7.04167 134.301 8.05833 134.301 9.225C134.301 10.3917 134.526 11.4167 134.976 12.3C135.426 13.1833 136.051 13.8667 136.851 14.35C137.667 14.8167 138.601 15.05 139.651 15.05ZM161.03 18L154.68 10.225V18H151.18V0.55H154.68V8.375L161.03 0.55H165.255L158.055 9.2L165.455 18H161.03ZM173.782 18.175C172.565 18.175 171.465 17.9667 170.482 17.55C169.515 17.1333 168.748 16.5333 168.182 15.75C167.615 14.9667 167.323 14.0417 167.307 12.975H171.057C171.107 13.6917 171.357 14.2583 171.807 14.675C172.273 15.0917 172.907 15.3 173.707 15.3C174.523 15.3 175.165 15.1083 175.632 14.725C176.098 14.325 176.332 13.8083 176.332 13.175C176.332 12.6583 176.173 12.2333 175.857 11.9C175.54 11.5667 175.14 11.3083 174.657 11.125C174.19 10.925 173.54 10.7083 172.707 10.475C171.573 10.1417 170.648 9.81667 169.932 9.5C169.232 9.16667 168.623 8.675 168.107 8.025C167.607 7.35833 167.357 6.475 167.357 5.375C167.357 4.34167 167.615 3.44167 168.132 2.675C168.648 1.90833 169.373 1.325 170.307 0.924999C171.24 0.508333 172.307 0.3 173.507 0.3C175.307 0.3 176.765 0.741666 177.882 1.625C179.015 2.49167 179.64 3.70833 179.757 5.275H175.907C175.873 4.675 175.615 4.18333 175.132 3.8C174.665 3.4 174.04 3.2 173.257 3.2C172.573 3.2 172.023 3.375 171.607 3.725C171.207 4.075 171.007 4.58333 171.007 5.25C171.007 5.71667 171.157 6.10833 171.457 6.425C171.773 6.725 172.157 6.975 172.607 7.175C173.073 7.35833 173.723 7.575 174.557 7.825C175.69 8.15833 176.615 8.49167 177.332 8.825C178.048 9.15833 178.665 9.65833 179.182 10.325C179.698 10.9917 179.957 11.8667 179.957 12.95C179.957 13.8833 179.715 14.75 179.232 15.55C178.748 16.35 178.04 16.9917 177.107 17.475C176.173 17.9417 175.065 18.175 173.782 18.175ZM191.091 18.175C189.458 18.175 187.958 17.7917 186.591 17.025C185.224 16.2583 184.141 15.2 183.341 13.85C182.541 12.4833 182.141 10.9417 182.141 9.225C182.141 7.525 182.541 6 183.341 4.65C184.141 3.28333 185.224 2.21667 186.591 1.45C187.958 0.683333 189.458 0.3 191.091 0.3C192.741 0.3 194.241 0.683333 195.591 1.45C196.958 2.21667 198.033 3.28333 198.816 4.65C199.616 6 200.016 7.525 200.016 9.225C200.016 10.9417 199.616 12.4833 198.816 13.85C198.033 15.2 196.958 16.2583 195.591 17.025C194.224 17.7917 192.724 18.175 191.091 18.175ZM191.091 15.05C192.141 15.05 193.066 14.8167 193.866 14.35C194.666 13.8667 195.291 13.1833 195.741 12.3C196.191 11.4167 196.416 10.3917 196.416 9.225C196.416 8.05833 196.191 7.04167 195.741 6.175C195.291 5.29167 194.666 4.61667 193.866 4.15C193.066 3.68333 192.141 3.45 191.091 3.45C190.041 3.45 189.108 3.68333 188.291 4.15C187.491 4.61667 186.866 5.29167 186.416 6.175C185.966 7.04167 185.741 8.05833 185.741 9.225C185.741 10.3917 185.966 11.4167 186.416 12.3C186.866 13.1833 187.491 13.8667 188.291 14.35C189.108 14.8167 190.041 15.05 191.091 15.05ZM217.545 18H214.045L206.12 6.025V18H202.62V0.524998H206.12L214.045 12.525V0.524998H217.545V18ZM224.504 3.375V7.75H230.379V10.525H224.504V15.15H231.129V18H221.004V0.524998H231.129V3.375H224.504ZM249.234 18H245.734L237.809 6.025V18H234.309V0.524998H237.809L245.734 12.525V0.524998H249.234V18ZM262.543 18L256.193 10.225V18H252.693V0.55H256.193V8.375L262.543 0.55H266.768L259.568 9.2L266.968 18H262.543ZM277.37 18.175C275.737 18.175 274.237 17.7917 272.87 17.025C271.504 16.2583 270.42 15.2 269.62 13.85C268.82 12.4833 268.42 10.9417 268.42 9.225C268.42 7.525 268.82 6 269.62 4.65C270.42 3.28333 271.504 2.21667 272.87 1.45C274.237 0.683333 275.737 0.3 277.37 0.3C279.02 0.3 280.52 0.683333 281.87 1.45C283.237 2.21667 284.312 3.28333 285.095 4.65C285.895 6 286.295 7.525 286.295 9.225C286.295 10.9417 285.895 12.4833 285.095 13.85C284.312 15.2 283.237 16.2583 281.87 17.025C280.504 17.7917 279.004 18.175 277.37 18.175ZM277.37 15.05C278.42 15.05 279.345 14.8167 280.145 14.35C280.945 13.8667 281.57 13.1833 282.02 12.3C282.47 11.4167 282.695 10.3917 282.695 9.225C282.695 8.05833 282.47 7.04167 282.02 6.175C281.57 5.29167 280.945 4.61667 280.145 4.15C279.345 3.68333 278.42 3.45 277.37 3.45C276.32 3.45 275.387 3.68333 274.57 4.15C273.77 4.61667 273.145 5.29167 272.695 6.175C272.245 7.04167 272.02 8.05833 272.02 9.225C272.02 10.3917 272.245 11.4167 272.695 12.3C273.145 13.1833 273.77 13.8667 274.57 14.35C275.387 14.8167 276.32 15.05 277.37 15.05Z" fill="white"/>
<path d="M165.652 23.636V24.524H162.016V27.344H164.968V28.232H162.016V32H160.924V23.636H165.652ZM168.063 26.492C168.255 26.116 168.527 25.824 168.879 25.616C169.239 25.408 169.675 25.304 170.187 25.304V26.432H169.899C168.675 26.432 168.063 27.096 168.063 28.424V32H166.971V25.424H168.063V26.492ZM174.315 32.108C173.699 32.108 173.139 31.968 172.635 31.688C172.139 31.408 171.747 31.012 171.459 30.5C171.179 29.98 171.039 29.38 171.039 28.7C171.039 28.028 171.183 27.436 171.471 26.924C171.767 26.404 172.167 26.008 172.671 25.736C173.175 25.456 173.739 25.316 174.363 25.316C174.987 25.316 175.551 25.456 176.055 25.736C176.559 26.008 176.955 26.4 177.243 26.912C177.539 27.424 177.687 28.02 177.687 28.7C177.687 29.38 177.535 29.98 177.231 30.5C176.935 31.012 176.531 31.408 176.019 31.688C175.507 31.968 174.939 32.108 174.315 32.108ZM174.315 31.148C174.707 31.148 175.075 31.056 175.419 30.872C175.763 30.688 176.039 30.412 176.247 30.044C176.463 29.676 176.571 29.228 176.571 28.7C176.571 28.172 176.467 27.724 176.259 27.356C176.051 26.988 175.779 26.716 175.443 26.54C175.107 26.356 174.743 26.264 174.351 26.264C173.951 26.264 173.583 26.356 173.247 26.54C172.919 26.716 172.655 26.988 172.455 27.356C172.255 27.724 172.155 28.172 172.155 28.7C172.155 29.236 172.251 29.688 172.443 30.056C172.643 30.424 172.907 30.7 173.235 30.884C173.563 31.06 173.923 31.148 174.315 31.148ZM182.327 25.304C183.127 25.304 183.775 25.548 184.271 26.036C184.767 26.516 185.015 27.212 185.015 28.124V32H183.935V28.28C183.935 27.624 183.771 27.124 183.443 26.78C183.115 26.428 182.667 26.252 182.099 26.252C181.523 26.252 181.063 26.432 180.719 26.792C180.383 27.152 180.215 27.676 180.215 28.364V32H179.123V25.424H180.215V26.36C180.431 26.024 180.723 25.764 181.091 25.58C181.467 25.396 181.879 25.304 182.327 25.304ZM188.131 26.324V30.2C188.131 30.52 188.199 30.748 188.335 30.884C188.471 31.012 188.707 31.076 189.043 31.076H189.847V32H188.863C188.255 32 187.799 31.86 187.495 31.58C187.191 31.3 187.039 30.84 187.039 30.2V26.324H186.187V25.424H187.039V23.768H188.131V25.424H189.847V26.324H188.131ZM195.73 27.14V28.064H190.942V27.14H195.73ZM203.779 28.46C203.779 28.668 203.767 28.888 203.743 29.12H198.487C198.527 29.768 198.747 30.276 199.147 30.644C199.555 31.004 200.047 31.184 200.623 31.184C201.095 31.184 201.487 31.076 201.799 30.86C202.119 30.636 202.343 30.34 202.471 29.972H203.647C203.471 30.604 203.119 31.12 202.591 31.52C202.063 31.912 201.407 32.108 200.623 32.108C199.999 32.108 199.439 31.968 198.943 31.688C198.455 31.408 198.071 31.012 197.791 30.5C197.511 29.98 197.371 29.38 197.371 28.7C197.371 28.02 197.507 27.424 197.779 26.912C198.051 26.4 198.431 26.008 198.919 25.736C199.415 25.456 199.983 25.316 200.623 25.316C201.247 25.316 201.799 25.452 202.279 25.724C202.759 25.996 203.127 26.372 203.383 26.852C203.647 27.324 203.779 27.86 203.779 28.46ZM202.651 28.232C202.651 27.816 202.559 27.46 202.375 27.164C202.191 26.86 201.939 26.632 201.619 26.48C201.307 26.32 200.959 26.24 200.575 26.24C200.023 26.24 199.551 26.416 199.159 26.768C198.775 27.12 198.555 27.608 198.499 28.232H202.651ZM208.425 25.304C209.225 25.304 209.873 25.548 210.369 26.036C210.865 26.516 211.113 27.212 211.113 28.124V32H210.033V28.28C210.033 27.624 209.869 27.124 209.541 26.78C209.213 26.428 208.765 26.252 208.197 26.252C207.621 26.252 207.161 26.432 206.817 26.792C206.481 27.152 206.313 27.676 206.313 28.364V32H205.221V25.424H206.313V26.36C206.529 26.024 206.821 25.764 207.189 25.58C207.565 25.396 207.977 25.304 208.425 25.304ZM212.489 28.688C212.489 28.016 212.625 27.428 212.897 26.924C213.169 26.412 213.541 26.016 214.013 25.736C214.493 25.456 215.029 25.316 215.621 25.316C216.133 25.316 216.609 25.436 217.049 25.676C217.489 25.908 217.825 26.216 218.057 26.6V23.12H219.161V32H218.057V30.764C217.841 31.156 217.521 31.48 217.097 31.736C216.673 31.984 216.177 32.108 215.609 32.108C215.025 32.108 214.493 31.964 214.013 31.676C213.541 31.388 213.169 30.984 212.897 30.464C212.625 29.944 212.489 29.352 212.489 28.688ZM218.057 28.7C218.057 28.204 217.957 27.772 217.757 27.404C217.557 27.036 217.285 26.756 216.941 26.564C216.605 26.364 216.233 26.264 215.825 26.264C215.417 26.264 215.045 26.36 214.709 26.552C214.373 26.744 214.105 27.024 213.905 27.392C213.705 27.76 213.605 28.192 213.605 28.688C213.605 29.192 213.705 29.632 213.905 30.008C214.105 30.376 214.373 30.66 214.709 30.86C215.045 31.052 215.417 31.148 215.825 31.148C216.233 31.148 216.605 31.052 216.941 30.86C217.285 30.66 217.557 30.376 217.757 30.008C217.957 29.632 218.057 29.196 218.057 28.7ZM226.809 23.636C227.721 23.636 228.509 23.808 229.173 24.152C229.845 24.488 230.357 24.972 230.709 25.604C231.069 26.236 231.249 26.98 231.249 27.836C231.249 28.692 231.069 29.436 230.709 30.068C230.357 30.692 229.845 31.172 229.173 31.508C228.509 31.836 227.721 32 226.809 32H224.205V23.636H226.809ZM226.809 31.1C227.889 31.1 228.713 30.816 229.281 30.248C229.849 29.672 230.133 28.868 230.133 27.836C230.133 26.796 229.845 25.984 229.269 25.4C228.701 24.816 227.881 24.524 226.809 24.524H225.297V31.1H226.809ZM238.69 28.46C238.69 28.668 238.678 28.888 238.654 29.12H233.398C233.438 29.768 233.658 30.276 234.058 30.644C234.466 31.004 234.958 31.184 235.534 31.184C236.006 31.184 236.398 31.076 236.71 30.86C237.03 30.636 237.254 30.34 237.382 29.972H238.558C238.382 30.604 238.03 31.12 237.502 31.52C236.974 31.912 236.318 32.108 235.534 32.108C234.91 32.108 234.35 31.968 233.854 31.688C233.366 31.408 232.982 31.012 232.702 30.5C232.422 29.98 232.282 29.38 232.282 28.7C232.282 28.02 232.418 27.424 232.69 26.912C232.962 26.4 233.342 26.008 233.83 25.736C234.326 25.456 234.894 25.316 235.534 25.316C236.158 25.316 236.71 25.452 237.19 25.724C237.67 25.996 238.038 26.372 238.294 26.852C238.558 27.324 238.69 27.86 238.69 28.46ZM237.562 28.232C237.562 27.816 237.47 27.46 237.286 27.164C237.102 26.86 236.85 26.632 236.53 26.48C236.218 26.32 235.87 26.24 235.486 26.24C234.934 26.24 234.462 26.416 234.07 26.768C233.686 27.12 233.466 27.608 233.41 28.232H237.562ZM242.579 30.992L244.619 25.424H245.783L243.203 32H241.931L239.351 25.424H240.527L242.579 30.992ZM252.858 28.46C252.858 28.668 252.846 28.888 252.822 29.12H247.566C247.606 29.768 247.826 30.276 248.226 30.644C248.634 31.004 249.126 31.184 249.702 31.184C250.174 31.184 250.566 31.076 250.878 30.86C251.198 30.636 251.422 30.34 251.55 29.972H252.726C252.55 30.604 252.198 31.12 251.67 31.52C251.142 31.912 250.486 32.108 249.702 32.108C249.078 32.108 248.518 31.968 248.022 31.688C247.534 31.408 247.15 31.012 246.87 30.5C246.59 29.98 246.45 29.38 246.45 28.7C246.45 28.02 246.586 27.424 246.858 26.912C247.13 26.4 247.51 26.008 247.998 25.736C248.494 25.456 249.062 25.316 249.702 25.316C250.326 25.316 250.878 25.452 251.358 25.724C251.838 25.996 252.206 26.372 252.462 26.852C252.726 27.324 252.858 27.86 252.858 28.46ZM251.73 28.232C251.73 27.816 251.638 27.46 251.454 27.164C251.27 26.86 251.018 26.632 250.698 26.48C250.386 26.32 250.038 26.24 249.654 26.24C249.102 26.24 248.63 26.416 248.238 26.768C247.854 27.12 247.634 27.608 247.578 28.232H251.73ZM255.391 23.12V32H254.299V23.12H255.391ZM260.12 32.108C259.504 32.108 258.944 31.968 258.44 31.688C257.944 31.408 257.552 31.012 257.264 30.5C256.984 29.98 256.844 29.38 256.844 28.7C256.844 28.028 256.988 27.436 257.276 26.924C257.572 26.404 257.972 26.008 258.476 25.736C258.98 25.456 259.544 25.316 260.168 25.316C260.792 25.316 261.356 25.456 261.86 25.736C262.364 26.008 262.76 26.4 263.048 26.912C263.344 27.424 263.492 28.02 263.492 28.7C263.492 29.38 263.34 29.98 263.036 30.5C262.74 31.012 262.336 31.408 261.824 31.688C261.312 31.968 260.744 32.108 260.12 32.108ZM260.12 31.148C260.512 31.148 260.88 31.056 261.224 30.872C261.568 30.688 261.844 30.412 262.052 30.044C262.268 29.676 262.376 29.228 262.376 28.7C262.376 28.172 262.272 27.724 262.064 27.356C261.856 26.988 261.584 26.716 261.248 26.54C260.912 26.356 260.548 26.264 260.156 26.264C259.756 26.264 259.388 26.356 259.052 26.54C258.724 26.716 258.46 26.988 258.26 27.356C258.06 27.724 257.96 28.172 257.96 28.7C257.96 29.236 258.056 29.688 258.248 30.056C258.448 30.424 258.712 30.7 259.04 30.884C259.368 31.06 259.728 31.148 260.12 31.148ZM266.02 26.636C266.236 26.26 266.556 25.948 266.98 25.7C267.412 25.444 267.912 25.316 268.48 25.316C269.064 25.316 269.592 25.456 270.064 25.736C270.544 26.016 270.92 26.412 271.192 26.924C271.464 27.428 271.6 28.016 271.6 28.688C271.6 29.352 271.464 29.944 271.192 30.464C270.92 30.984 270.544 31.388 270.064 31.676C269.592 31.964 269.064 32.108 268.48 32.108C267.92 32.108 267.424 31.984 266.992 31.736C266.568 31.48 266.244 31.164 266.02 30.788V35.12H264.928V25.424H266.02V26.636ZM270.484 28.688C270.484 28.192 270.384 27.76 270.184 27.392C269.984 27.024 269.712 26.744 269.368 26.552C269.032 26.36 268.66 26.264 268.252 26.264C267.852 26.264 267.48 26.364 267.136 26.564C266.8 26.756 266.528 27.04 266.32 27.416C266.12 27.784 266.02 28.212 266.02 28.7C266.02 29.196 266.12 29.632 266.32 30.008C266.528 30.376 266.8 30.66 267.136 30.86C267.48 31.052 267.852 31.148 268.252 31.148C268.66 31.148 269.032 31.052 269.368 30.86C269.712 30.66 269.984 30.376 270.184 30.008C270.384 29.632 270.484 29.192 270.484 28.688ZM279.037 28.46C279.037 28.668 279.025 28.888 279.001 29.12H273.745C273.785 29.768 274.005 30.276 274.405 30.644C274.813 31.004 275.305 31.184 275.881 31.184C276.353 31.184 276.745 31.076 277.057 30.86C277.377 30.636 277.601 30.34 277.729 29.972H278.905C278.729 30.604 278.377 31.12 277.849 31.52C277.321 31.912 276.665 32.108 275.881 32.108C275.257 32.108 274.697 31.968 274.201 31.688C273.713 31.408 273.329 31.012 273.049 30.5C272.769 29.98 272.629 29.38 272.629 28.7C272.629 28.02 272.765 27.424 273.037 26.912C273.309 26.4 273.689 26.008 274.177 25.736C274.673 25.456 275.241 25.316 275.881 25.316C276.505 25.316 277.057 25.452 277.537 25.724C278.017 25.996 278.385 26.372 278.641 26.852C278.905 27.324 279.037 27.86 279.037 28.46ZM277.909 28.232C277.909 27.816 277.817 27.46 277.633 27.164C277.449 26.86 277.197 26.632 276.877 26.48C276.565 26.32 276.217 26.24 275.833 26.24C275.281 26.24 274.809 26.416 274.417 26.768C274.033 27.12 273.813 27.608 273.757 28.232H277.909ZM281.571 26.492C281.763 26.116 282.035 25.824 282.387 25.616C282.747 25.408 283.183 25.304 283.695 25.304V26.432H283.407C282.183 26.432 281.571 27.096 281.571 28.424V32H280.479V25.424H281.571V26.492Z" fill="white"/>
<path d="M152 28.5L0 28.5" stroke="white"/>
</svg>
