<svg width="188" height="65" viewBox="0 0 188 65" fill="none" xmlns="http://www.w3.org/2000/svg">
<path d="M28.879 1.06L21.199 22H16.099L8.41902 1.06H12.919L18.679 17.71L24.409 1.06H28.879ZM35.5971 18.67H42.4971V22H31.3971V1.06H35.5971V18.67ZM58.0067 18.01H49.6667L48.2867 22H43.8767L51.4067 1.03H56.2967L63.8267 22H59.3867L58.0067 18.01ZM56.8667 14.65L53.8367 5.89L50.8067 14.65H56.8667ZM73.9613 1.06C76.1613 1.06 78.0913 1.49 79.7513 2.35C81.4313 3.21 82.7213 4.44 83.6213 6.04C84.5413 7.62 85.0013 9.46 85.0013 11.56C85.0013 13.66 84.5413 15.5 83.6213 17.08C82.7213 18.64 81.4313 19.85 79.7513 20.71C78.0913 21.57 76.1613 22 73.9613 22H66.6413V1.06H73.9613ZM73.8113 18.43C76.0113 18.43 77.7113 17.83 78.9113 16.63C80.1113 15.43 80.7113 13.74 80.7113 11.56C80.7113 9.38 80.1113 7.68 78.9113 6.46C77.7113 5.22 76.0113 4.6 73.8113 4.6H70.8413V18.43H73.8113ZM104.795 1.06L97.7152 14.71V22H93.5152V14.71L86.4052 1.06H91.1452L95.6452 10.63L100.115 1.06H104.795ZM114.447 22.21C112.987 22.21 111.667 21.96 110.487 21.46C109.327 20.96 108.407 20.24 107.727 19.3C107.047 18.36 106.697 17.25 106.677 15.97H111.177C111.237 16.83 111.537 17.51 112.077 18.01C112.637 18.51 113.397 18.76 114.357 18.76C115.337 18.76 116.107 18.53 116.667 18.07C117.227 17.59 117.507 16.97 117.507 16.21C117.507 15.59 117.317 15.08 116.937 14.68C116.557 14.28 116.077 13.97 115.497 13.75C114.937 13.51 114.157 13.25 113.157 12.97C111.797 12.57 110.687 12.18 109.827 11.8C108.987 11.4 108.257 10.81 107.637 10.03C107.037 9.23 106.737 8.17 106.737 6.85C106.737 5.61 107.047 4.53 107.667 3.61C108.287 2.69 109.157 1.99 110.277 1.51C111.397 1.01 112.677 0.76 114.117 0.76C116.277 0.76 118.027 1.29 119.367 2.35C120.727 3.39 121.477 4.85 121.617 6.73H116.997C116.957 6.01 116.647 5.42 116.067 4.96C115.507 4.48 114.757 4.24 113.817 4.24C112.997 4.24 112.337 4.45 111.837 4.87C111.357 5.29 111.117 5.9 111.117 6.7C111.117 7.26 111.297 7.73 111.657 8.11C112.037 8.47 112.497 8.77 113.037 9.01C113.597 9.23 114.377 9.49 115.377 9.79C116.737 10.19 117.847 10.59 118.707 10.99C119.567 11.39 120.307 11.99 120.927 12.79C121.547 13.59 121.857 14.64 121.857 15.94C121.857 17.06 121.567 18.1 120.987 19.06C120.407 20.02 119.557 20.79 118.437 21.37C117.317 21.93 115.987 22.21 114.447 22.21ZM129.699 18.67H136.599V22H125.499V1.06H129.699V18.67ZM152.108 18.01H143.768L142.388 22H137.978L145.508 1.03H150.398L157.928 22H153.488L152.108 18.01ZM150.968 14.65L147.938 5.89L144.908 14.65H150.968ZM179.553 1.06L171.873 22H166.773L159.093 1.06H163.593L169.353 17.71L175.083 1.06H179.553ZM11.3808 48.21C9.42082 48.21 7.62082 47.75 5.98082 46.83C4.34082 45.91 3.04082 44.64 2.08082 43.02C1.12082 41.38 0.64082 39.53 0.64082 37.47C0.64082 35.43 1.12082 33.6 2.08082 31.98C3.04082 30.34 4.34082 29.06 5.98082 28.14C7.62082 27.22 9.42082 26.76 11.3808 26.76C13.3608 26.76 15.1608 27.22 16.7808 28.14C18.4208 29.06 19.7108 30.34 20.6508 31.98C21.6108 33.6 22.0908 35.43 22.0908 37.47C22.0908 39.53 21.6108 41.38 20.6508 43.02C19.7108 44.64 18.4208 45.91 16.7808 46.83C15.1408 47.75 13.3408 48.21 11.3808 48.21ZM11.3808 44.46C12.6408 44.46 13.7508 44.18 14.7108 43.62C15.6708 43.04 16.4208 42.22 16.9608 41.16C17.5008 40.1 17.7708 38.87 17.7708 37.47C17.7708 36.07 17.5008 34.85 16.9608 33.81C16.4208 32.75 15.6708 31.94 14.7108 31.38C13.7508 30.82 12.6408 30.54 11.3808 30.54C10.1208 30.54 9.00082 30.82 8.02082 31.38C7.06082 31.94 6.31082 32.75 5.77082 33.81C5.23082 34.85 4.96082 36.07 4.96082 37.47C4.96082 38.87 5.23082 40.1 5.77082 41.16C6.31082 42.22 7.06082 43.04 8.02082 43.62C9.00082 44.18 10.1208 44.46 11.3808 44.46ZM37.0355 48L29.4155 38.67V48H25.2155V27.06H29.4155V36.45L37.0355 27.06H42.1055L33.4655 37.44L42.3455 48H37.0355ZM52.3381 48.21C50.8781 48.21 49.5581 47.96 48.3781 47.46C47.2181 46.96 46.2981 46.24 45.6181 45.3C44.9381 44.36 44.5881 43.25 44.5681 41.97H49.0681C49.1281 42.83 49.4281 43.51 49.9681 44.01C50.5281 44.51 51.2881 44.76 52.2481 44.76C53.2281 44.76 53.9981 44.53 54.5581 44.07C55.1181 43.59 55.3981 42.97 55.3981 42.21C55.3981 41.59 55.2081 41.08 54.8281 40.68C54.4481 40.28 53.9681 39.97 53.3881 39.75C52.8281 39.51 52.0481 39.25 51.0481 38.97C49.6881 38.57 48.5781 38.18 47.7181 37.8C46.8781 37.4 46.1481 36.81 45.5281 36.03C44.9281 35.23 44.6281 34.17 44.6281 32.85C44.6281 31.61 44.9381 30.53 45.5581 29.61C46.1781 28.69 47.0481 27.99 48.1681 27.51C49.2881 27.01 50.5681 26.76 52.0081 26.76C54.1681 26.76 55.9181 27.29 57.2581 28.35C58.6181 29.39 59.3681 30.85 59.5081 32.73H54.8881C54.8481 32.01 54.5381 31.42 53.9581 30.96C53.3981 30.48 52.6481 30.24 51.7081 30.24C50.8881 30.24 50.2281 30.45 49.7281 30.87C49.2481 31.29 49.0081 31.9 49.0081 32.7C49.0081 33.26 49.1881 33.73 49.5481 34.11C49.9281 34.47 50.3881 34.77 50.9281 35.01C51.4881 35.23 52.2681 35.49 53.2681 35.79C54.6281 36.19 55.7381 36.59 56.5981 36.99C57.4581 37.39 58.1981 37.99 58.8181 38.79C59.4381 39.59 59.7481 40.64 59.7481 41.94C59.7481 43.06 59.4581 44.1 58.8781 45.06C58.2981 46.02 57.4481 46.79 56.3281 47.37C55.2081 47.93 53.8781 48.21 52.3381 48.21ZM73.1093 48.21C71.1493 48.21 69.3493 47.75 67.7093 46.83C66.0693 45.91 64.7693 44.64 63.8093 43.02C62.8493 41.38 62.3693 39.53 62.3693 37.47C62.3693 35.43 62.8493 33.6 63.8093 31.98C64.7693 30.34 66.0693 29.06 67.7093 28.14C69.3493 27.22 71.1493 26.76 73.1093 26.76C75.0893 26.76 76.8893 27.22 78.5093 28.14C80.1493 29.06 81.4393 30.34 82.3793 31.98C83.3393 33.6 83.8193 35.43 83.8193 37.47C83.8193 39.53 83.3393 41.38 82.3793 43.02C81.4393 44.64 80.1493 45.91 78.5093 46.83C76.8693 47.75 75.0693 48.21 73.1093 48.21ZM73.1093 44.46C74.3693 44.46 75.4793 44.18 76.4393 43.62C77.3993 43.04 78.1493 42.22 78.6893 41.16C79.2293 40.1 79.4993 38.87 79.4993 37.47C79.4993 36.07 79.2293 34.85 78.6893 33.81C78.1493 32.75 77.3993 31.94 76.4393 31.38C75.4793 30.82 74.3693 30.54 73.1093 30.54C71.8493 30.54 70.7293 30.82 69.7493 31.38C68.7893 31.94 68.0393 32.75 67.4993 33.81C66.9593 34.85 66.6893 36.07 66.6893 37.47C66.6893 38.87 66.9593 40.1 67.4993 41.16C68.0393 42.22 68.7893 43.04 69.7493 43.62C70.7293 44.18 71.8493 44.46 73.1093 44.46ZM104.854 48H100.654L91.144 33.63V48H86.944V27.03H91.144L100.654 41.43V27.03H104.854V48ZM113.205 30.45V35.7H120.255V39.03H113.205V44.58H121.155V48H109.005V27.03H121.155V30.45H113.205ZM142.881 48H138.681L129.171 33.63V48H124.971V27.03H129.171L138.681 41.43V27.03H142.881V48ZM158.852 48L151.232 38.67V48H147.032V27.06H151.232V36.45L158.852 27.06H163.922L155.282 37.44L164.162 48H158.852ZM176.644 48.21C174.684 48.21 172.884 47.75 171.244 46.83C169.604 45.91 168.304 44.64 167.344 43.02C166.384 41.38 165.904 39.53 165.904 37.47C165.904 35.43 166.384 33.6 167.344 31.98C168.304 30.34 169.604 29.06 171.244 28.14C172.884 27.22 174.684 26.76 176.644 26.76C178.624 26.76 180.424 27.22 182.044 28.14C183.684 29.06 184.974 30.34 185.914 31.98C186.874 33.6 187.354 35.43 187.354 37.47C187.354 39.53 186.874 41.38 185.914 43.02C184.974 44.64 183.684 45.91 182.044 46.83C180.404 47.75 178.604 48.21 176.644 48.21ZM176.644 44.46C177.904 44.46 179.014 44.18 179.974 43.62C180.934 43.04 181.684 42.22 182.224 41.16C182.764 40.1 183.034 38.87 183.034 37.47C183.034 36.07 182.764 34.85 182.224 33.81C181.684 32.75 180.934 31.94 179.974 31.38C179.014 30.82 177.904 30.54 176.644 30.54C175.384 30.54 174.264 30.82 173.284 31.38C172.324 31.94 171.574 32.75 171.034 33.81C170.494 34.85 170.224 36.07 170.224 37.47C170.224 38.87 170.494 40.1 171.034 41.16C171.574 42.22 172.324 43.04 173.284 43.62C174.264 44.18 175.384 44.46 176.644 44.46Z" fill="white"/>
<path d="M39.1364 52.636V53.524H35.5004V56.344H38.4524V57.232H35.5004V61H34.4084V52.636H39.1364ZM41.5473 55.492C41.7393 55.116 42.0113 54.824 42.3633 54.616C42.7233 54.408 43.1593 54.304 43.6713 54.304V55.432H43.3833C42.1593 55.432 41.5473 56.096 41.5473 57.424V61H40.4553V54.424H41.5473V55.492ZM47.7998 61.108C47.1838 61.108 46.6238 60.968 46.1198 60.688C45.6238 60.408 45.2318 60.012 44.9438 59.5C44.6638 58.98 44.5238 58.38 44.5238 57.7C44.5238 57.028 44.6678 56.436 44.9558 55.924C45.2518 55.404 45.6518 55.008 46.1558 54.736C46.6598 54.456 47.2238 54.316 47.8478 54.316C48.4718 54.316 49.0358 54.456 49.5398 54.736C50.0438 55.008 50.4398 55.4 50.7278 55.912C51.0238 56.424 51.1718 57.02 51.1718 57.7C51.1718 58.38 51.0198 58.98 50.7158 59.5C50.4198 60.012 50.0158 60.408 49.5038 60.688C48.9918 60.968 48.4238 61.108 47.7998 61.108ZM47.7998 60.148C48.1918 60.148 48.5598 60.056 48.9038 59.872C49.2478 59.688 49.5238 59.412 49.7318 59.044C49.9478 58.676 50.0558 58.228 50.0558 57.7C50.0558 57.172 49.9518 56.724 49.7438 56.356C49.5358 55.988 49.2638 55.716 48.9278 55.54C48.5918 55.356 48.2278 55.264 47.8358 55.264C47.4358 55.264 47.0678 55.356 46.7318 55.54C46.4038 55.716 46.1398 55.988 45.9398 56.356C45.7398 56.724 45.6398 57.172 45.6398 57.7C45.6398 58.236 45.7358 58.688 45.9278 59.056C46.1278 59.424 46.3918 59.7 46.7198 59.884C47.0478 60.06 47.4078 60.148 47.7998 60.148ZM55.8116 54.304C56.6116 54.304 57.2596 54.548 57.7556 55.036C58.2516 55.516 58.4996 56.212 58.4996 57.124V61H57.4196V57.28C57.4196 56.624 57.2556 56.124 56.9276 55.78C56.5996 55.428 56.1516 55.252 55.5836 55.252C55.0076 55.252 54.5476 55.432 54.2036 55.792C53.8676 56.152 53.6996 56.676 53.6996 57.364V61H52.6076V54.424H53.6996V55.36C53.9156 55.024 54.2076 54.764 54.5756 54.58C54.9516 54.396 55.3636 54.304 55.8116 54.304ZM61.6154 55.324V59.2C61.6154 59.52 61.6834 59.748 61.8194 59.884C61.9554 60.012 62.1914 60.076 62.5274 60.076H63.3314V61H62.3474C61.7394 61 61.2834 60.86 60.9794 60.58C60.6754 60.3 60.5234 59.84 60.5234 59.2V55.324H59.6714V54.424H60.5234V52.768H61.6154V54.424H63.3314V55.324H61.6154ZM69.2145 56.14V57.064H64.4265V56.14H69.2145ZM77.2638 57.46C77.2638 57.668 77.2518 57.888 77.2278 58.12H71.9718C72.0118 58.768 72.2318 59.276 72.6318 59.644C73.0398 60.004 73.5318 60.184 74.1078 60.184C74.5798 60.184 74.9718 60.076 75.2838 59.86C75.6038 59.636 75.8278 59.34 75.9558 58.972H77.1318C76.9558 59.604 76.6038 60.12 76.0758 60.52C75.5478 60.912 74.8918 61.108 74.1078 61.108C73.4838 61.108 72.9238 60.968 72.4278 60.688C71.9398 60.408 71.5558 60.012 71.2758 59.5C70.9958 58.98 70.8558 58.38 70.8558 57.7C70.8558 57.02 70.9918 56.424 71.2638 55.912C71.5358 55.4 71.9158 55.008 72.4038 54.736C72.8998 54.456 73.4678 54.316 74.1078 54.316C74.7318 54.316 75.2838 54.452 75.7638 54.724C76.2438 54.996 76.6118 55.372 76.8678 55.852C77.1318 56.324 77.2638 56.86 77.2638 57.46ZM76.1358 57.232C76.1358 56.816 76.0438 56.46 75.8598 56.164C75.6758 55.86 75.4238 55.632 75.1038 55.48C74.7918 55.32 74.4438 55.24 74.0598 55.24C73.5078 55.24 73.0358 55.416 72.6438 55.768C72.2598 56.12 72.0398 56.608 71.9838 57.232H76.1358ZM81.9093 54.304C82.7093 54.304 83.3573 54.548 83.8533 55.036C84.3493 55.516 84.5973 56.212 84.5973 57.124V61H83.5173V57.28C83.5173 56.624 83.3533 56.124 83.0253 55.78C82.6973 55.428 82.2493 55.252 81.6813 55.252C81.1053 55.252 80.6453 55.432 80.3013 55.792C79.9653 56.152 79.7973 56.676 79.7973 57.364V61H78.7053V54.424H79.7973V55.36C80.0133 55.024 80.3053 54.764 80.6733 54.58C81.0493 54.396 81.4613 54.304 81.9093 54.304ZM85.973 57.688C85.973 57.016 86.109 56.428 86.381 55.924C86.653 55.412 87.025 55.016 87.497 54.736C87.977 54.456 88.513 54.316 89.105 54.316C89.617 54.316 90.093 54.436 90.533 54.676C90.973 54.908 91.309 55.216 91.541 55.6V52.12H92.645V61H91.541V59.764C91.325 60.156 91.005 60.48 90.581 60.736C90.157 60.984 89.661 61.108 89.093 61.108C88.509 61.108 87.977 60.964 87.497 60.676C87.025 60.388 86.653 59.984 86.381 59.464C86.109 58.944 85.973 58.352 85.973 57.688ZM91.541 57.7C91.541 57.204 91.441 56.772 91.241 56.404C91.041 56.036 90.769 55.756 90.425 55.564C90.089 55.364 89.717 55.264 89.309 55.264C88.901 55.264 88.529 55.36 88.193 55.552C87.857 55.744 87.589 56.024 87.389 56.392C87.189 56.76 87.089 57.192 87.089 57.688C87.089 58.192 87.189 58.632 87.389 59.008C87.589 59.376 87.857 59.66 88.193 59.86C88.529 60.052 88.901 60.148 89.309 60.148C89.717 60.148 90.089 60.052 90.425 59.86C90.769 59.66 91.041 59.376 91.241 59.008C91.441 58.632 91.541 58.196 91.541 57.7ZM100.294 52.636C101.206 52.636 101.994 52.808 102.658 53.152C103.33 53.488 103.842 53.972 104.194 54.604C104.554 55.236 104.734 55.98 104.734 56.836C104.734 57.692 104.554 58.436 104.194 59.068C103.842 59.692 103.33 60.172 102.658 60.508C101.994 60.836 101.206 61 100.294 61H97.6896V52.636H100.294ZM100.294 60.1C101.374 60.1 102.198 59.816 102.766 59.248C103.334 58.672 103.618 57.868 103.618 56.836C103.618 55.796 103.33 54.984 102.754 54.4C102.186 53.816 101.366 53.524 100.294 53.524H98.7816V60.1H100.294ZM112.174 57.46C112.174 57.668 112.162 57.888 112.138 58.12H106.882C106.922 58.768 107.142 59.276 107.542 59.644C107.95 60.004 108.442 60.184 109.018 60.184C109.49 60.184 109.882 60.076 110.194 59.86C110.514 59.636 110.738 59.34 110.866 58.972H112.042C111.866 59.604 111.514 60.12 110.986 60.52C110.458 60.912 109.802 61.108 109.018 61.108C108.394 61.108 107.834 60.968 107.338 60.688C106.85 60.408 106.466 60.012 106.186 59.5C105.906 58.98 105.766 58.38 105.766 57.7C105.766 57.02 105.902 56.424 106.174 55.912C106.446 55.4 106.826 55.008 107.314 54.736C107.81 54.456 108.378 54.316 109.018 54.316C109.642 54.316 110.194 54.452 110.674 54.724C111.154 54.996 111.522 55.372 111.778 55.852C112.042 56.324 112.174 56.86 112.174 57.46ZM111.046 57.232C111.046 56.816 110.954 56.46 110.77 56.164C110.586 55.86 110.334 55.632 110.014 55.48C109.702 55.32 109.354 55.24 108.97 55.24C108.418 55.24 107.946 55.416 107.554 55.768C107.17 56.12 106.95 56.608 106.894 57.232H111.046ZM116.063 59.992L118.103 54.424H119.267L116.687 61H115.415L112.835 54.424H114.011L116.063 59.992ZM126.342 57.46C126.342 57.668 126.33 57.888 126.306 58.12H121.05C121.09 58.768 121.31 59.276 121.71 59.644C122.118 60.004 122.61 60.184 123.186 60.184C123.658 60.184 124.05 60.076 124.362 59.86C124.682 59.636 124.906 59.34 125.034 58.972H126.21C126.034 59.604 125.682 60.12 125.154 60.52C124.626 60.912 123.97 61.108 123.186 61.108C122.562 61.108 122.002 60.968 121.506 60.688C121.018 60.408 120.634 60.012 120.354 59.5C120.074 58.98 119.934 58.38 119.934 57.7C119.934 57.02 120.07 56.424 120.342 55.912C120.614 55.4 120.994 55.008 121.482 54.736C121.978 54.456 122.546 54.316 123.186 54.316C123.81 54.316 124.362 54.452 124.842 54.724C125.322 54.996 125.69 55.372 125.946 55.852C126.21 56.324 126.342 56.86 126.342 57.46ZM125.214 57.232C125.214 56.816 125.122 56.46 124.938 56.164C124.754 55.86 124.502 55.632 124.182 55.48C123.87 55.32 123.522 55.24 123.138 55.24C122.586 55.24 122.114 55.416 121.722 55.768C121.338 56.12 121.118 56.608 121.062 57.232H125.214ZM128.875 52.12V61H127.783V52.12H128.875ZM133.605 61.108C132.989 61.108 132.429 60.968 131.925 60.688C131.429 60.408 131.037 60.012 130.749 59.5C130.469 58.98 130.329 58.38 130.329 57.7C130.329 57.028 130.473 56.436 130.761 55.924C131.057 55.404 131.457 55.008 131.961 54.736C132.465 54.456 133.029 54.316 133.653 54.316C134.277 54.316 134.841 54.456 135.345 54.736C135.849 55.008 136.245 55.4 136.533 55.912C136.829 56.424 136.977 57.02 136.977 57.7C136.977 58.38 136.825 58.98 136.521 59.5C136.225 60.012 135.821 60.408 135.309 60.688C134.797 60.968 134.229 61.108 133.605 61.108ZM133.605 60.148C133.997 60.148 134.365 60.056 134.709 59.872C135.053 59.688 135.329 59.412 135.537 59.044C135.753 58.676 135.861 58.228 135.861 57.7C135.861 57.172 135.757 56.724 135.549 56.356C135.341 55.988 135.069 55.716 134.733 55.54C134.397 55.356 134.033 55.264 133.641 55.264C133.241 55.264 132.873 55.356 132.537 55.54C132.209 55.716 131.945 55.988 131.745 56.356C131.545 56.724 131.445 57.172 131.445 57.7C131.445 58.236 131.541 58.688 131.733 59.056C131.933 59.424 132.197 59.7 132.525 59.884C132.853 60.06 133.213 60.148 133.605 60.148ZM139.504 55.636C139.72 55.26 140.04 54.948 140.464 54.7C140.896 54.444 141.396 54.316 141.964 54.316C142.548 54.316 143.076 54.456 143.548 54.736C144.028 55.016 144.404 55.412 144.676 55.924C144.948 56.428 145.084 57.016 145.084 57.688C145.084 58.352 144.948 58.944 144.676 59.464C144.404 59.984 144.028 60.388 143.548 60.676C143.076 60.964 142.548 61.108 141.964 61.108C141.404 61.108 140.908 60.984 140.476 60.736C140.052 60.48 139.728 60.164 139.504 59.788V64.12H138.412V54.424H139.504V55.636ZM143.968 57.688C143.968 57.192 143.868 56.76 143.668 56.392C143.468 56.024 143.196 55.744 142.852 55.552C142.516 55.36 142.144 55.264 141.736 55.264C141.336 55.264 140.964 55.364 140.62 55.564C140.284 55.756 140.012 56.04 139.804 56.416C139.604 56.784 139.504 57.212 139.504 57.7C139.504 58.196 139.604 58.632 139.804 59.008C140.012 59.376 140.284 59.66 140.62 59.86C140.964 60.052 141.336 60.148 141.736 60.148C142.144 60.148 142.516 60.052 142.852 59.86C143.196 59.66 143.468 59.376 143.668 59.008C143.868 58.632 143.968 58.192 143.968 57.688ZM152.522 57.46C152.522 57.668 152.51 57.888 152.486 58.12H147.23C147.27 58.768 147.49 59.276 147.89 59.644C148.298 60.004 148.79 60.184 149.366 60.184C149.838 60.184 150.23 60.076 150.542 59.86C150.862 59.636 151.086 59.34 151.214 58.972H152.39C152.214 59.604 151.862 60.12 151.334 60.52C150.806 60.912 150.15 61.108 149.366 61.108C148.742 61.108 148.182 60.968 147.686 60.688C147.198 60.408 146.814 60.012 146.534 59.5C146.254 58.98 146.114 58.38 146.114 57.7C146.114 57.02 146.25 56.424 146.522 55.912C146.794 55.4 147.174 55.008 147.662 54.736C148.158 54.456 148.726 54.316 149.366 54.316C149.99 54.316 150.542 54.452 151.022 54.724C151.502 54.996 151.87 55.372 152.126 55.852C152.39 56.324 152.522 56.86 152.522 57.46ZM151.394 57.232C151.394 56.816 151.302 56.46 151.118 56.164C150.934 55.86 150.682 55.632 150.362 55.48C150.05 55.32 149.702 55.24 149.318 55.24C148.766 55.24 148.294 55.416 147.902 55.768C147.518 56.12 147.298 56.608 147.242 57.232H151.394ZM155.055 55.492C155.247 55.116 155.519 54.824 155.871 54.616C156.231 54.408 156.667 54.304 157.179 54.304V55.432H156.891C155.667 55.432 155.055 56.096 155.055 57.424V61H153.963V54.424H155.055V55.492Z" fill="white"/>
<line x1="31" y1="57.5" x2="3" y2="57.5" stroke="white"/>
<line x1="188" y1="57.5" x2="160" y2="57.5" stroke="white"/>
</svg>
